<?xml version="1.0" encoding="UTF-8" standalone="yes"?>
<svg width="96" height="96" viewBox="0 0 96 96" fill="none" version="1.2" baseProfile="tiny-ps" xmlns="http://www.w3.org/2000/svg">
  <title>bimi-svg-tiny-12-ps</title>
  <rect width="96" height="96" fill="#0578FF"/>
  <path d="M23.7987 59.0673C23.5532 59.0673 23.3984 58.9498 23.3344 58.7159L19.8633 46.2255C19.8202 46.087 19.8319 45.9753 19.8947 45.8892C19.9587 45.8042 20.0658 45.7612 20.2147 45.7612H22.9178C23.1529 45.7612 23.3018 45.8833 23.3658 46.1289L25.4452 55.5485H25.5732L27.6527 46.1289C27.7167 45.8833 27.8656 45.7612 28.1007 45.7612H30.8038C30.9527 45.7612 31.0598 45.8042 31.1238 45.8892C31.1878 45.9741 31.1983 46.087 31.1564 46.2255L27.6852 58.7159C27.6212 58.951 27.4665 59.0673 27.221 59.0673H23.7987Z" fill="white"/>
  <path d="M33.6628 59.0673C33.5348 59.0673 33.4336 59.0301 33.3591 58.9556C33.2846 58.8812 33.2474 58.7799 33.2474 58.6519V46.1777C33.2474 46.0497 33.2846 45.9485 33.3591 45.874C33.4336 45.7996 33.5348 45.7623 33.6628 45.7623H36.2216C36.4986 45.7623 36.6371 45.9008 36.6371 46.1777V58.6519C36.6371 58.7799 36.5998 58.8812 36.5254 58.9556C36.4509 59.0301 36.3496 59.0673 36.2216 59.0673H33.6628ZM34.9416 44.7209C34.3877 44.7209 33.9176 44.5393 33.5336 44.1775C33.1496 43.8144 32.9576 43.335 32.9576 42.738C32.9576 42.1411 33.1438 41.65 33.5174 41.2986C33.9014 40.9367 34.3761 40.7552 34.9405 40.7552C35.5048 40.7552 35.9749 40.9367 36.3485 41.2986C36.7325 41.6512 36.9245 42.1306 36.9245 42.738C36.9245 43.3455 36.7325 43.8144 36.3485 44.1775C35.9645 44.5405 35.4955 44.7209 34.9405 44.7209H34.9416Z" fill="white"/>
  <path d="M43.2187 59.3873C42.3122 59.3873 41.5128 59.0999 40.8192 58.5239C40.1257 57.9375 39.5881 57.1217 39.2041 56.0768C38.8306 55.0214 38.6444 53.8007 38.6444 52.4137C38.6444 51.0266 38.8306 49.8118 39.2041 48.7668C39.5881 47.7114 40.1269 46.8957 40.8192 46.3197C41.5128 45.7332 42.3122 45.44 43.2187 45.44C43.9331 45.44 44.5568 45.6215 45.0898 45.9834C45.6227 46.3465 46.087 46.9004 46.4815 47.6462H46.6095V41.8886C46.6095 41.7606 46.6467 41.6593 46.7212 41.5849C46.7957 41.5104 46.8969 41.4732 47.0249 41.4732H49.5838C49.7013 41.4732 49.7967 41.5162 49.8712 41.6012C49.9561 41.6756 49.9992 41.7722 49.9992 41.8886V58.6496C49.9992 58.7566 49.9561 58.8521 49.8712 58.937C49.7967 59.022 49.7001 59.065 49.5838 59.065H47.4729C47.239 59.065 47.0889 58.9265 47.0249 58.6496L46.7049 57.0822H46.5769C46.2895 57.7757 45.8357 58.3354 45.2178 58.7613C44.6104 59.1767 43.9436 59.385 43.2187 59.385V59.3873ZM44.4021 56.5399C45.127 56.5399 45.6867 56.1827 46.0812 55.4682C46.4757 54.7537 46.6735 53.7356 46.6735 52.4137C46.6735 51.0918 46.4757 50.0736 46.0812 49.3591C45.6867 48.6446 45.127 48.2874 44.4021 48.2874C43.6771 48.2874 43.1221 48.6446 42.7392 49.3591C42.3564 50.0736 42.1632 51.0918 42.1632 52.4137C42.1632 53.7356 42.3552 54.7537 42.7392 55.4682C43.1232 56.1827 43.6771 56.5399 44.4021 56.5399Z" fill="white"/>
  <path d="M51.847 52.5103C51.847 51.1558 52.0925 49.9456 52.5824 48.8797C53.0839 47.8022 53.7716 46.9609 54.6455 46.3523C55.5194 45.7449 56.5167 45.4412 57.6361 45.4412C58.7555 45.4412 59.6666 45.7344 60.4986 46.3209C61.3411 46.9073 61.9916 47.7231 62.45 48.768C62.919 49.8025 63.154 50.9859 63.154 52.3183V52.9897C63.154 53.1177 63.111 53.2189 63.026 53.2934C62.9516 53.3679 62.8445 53.4051 62.706 53.4051H55.3972C55.5567 55.6009 56.3037 56.6993 57.6361 56.6993C58.7346 56.6993 59.4164 56.1292 59.6829 54.9876C59.7469 54.7212 59.9075 54.6141 60.1623 54.6676L62.5292 55.1959C62.8166 55.2599 62.9132 55.4298 62.8166 55.7079C62.4116 56.8913 61.7612 57.8025 60.8652 58.4425C59.9692 59.072 58.8928 59.3862 57.6349 59.3862C56.505 59.3862 55.502 59.0988 54.6281 58.5228C53.7542 57.9468 53.0711 57.1369 52.5812 56.0919C52.0902 55.047 51.8458 53.8531 51.8458 52.5091L51.847 52.5103ZM59.7004 51.1663C59.6038 50.1644 59.3804 49.4068 59.029 48.8948C58.688 48.3828 58.2237 48.1268 57.6372 48.1268C57.0508 48.1268 56.576 48.3875 56.1815 48.91C55.7975 49.4324 55.5474 50.1841 55.4298 51.1651H59.7004V51.1663Z" fill="white"/>
  <path d="M70.2685 59.3873C69.191 59.3873 68.2159 59.0836 67.342 58.4751C66.4681 57.8676 65.7746 57.0356 65.2626 55.9802C64.761 54.9143 64.5109 53.7251 64.5109 52.4137C64.5109 51.1023 64.761 49.9188 65.2626 48.8634C65.7746 47.7975 66.4669 46.9597 67.342 46.3523C68.2159 45.7449 69.1922 45.4412 70.2685 45.4412C71.3449 45.4412 72.3375 45.7449 73.2114 46.3523C74.0969 46.9597 74.7893 47.7975 75.2908 48.8634C75.8028 49.9188 76.0588 51.1023 76.0588 52.4137C76.0588 53.7251 75.8028 54.9143 75.2908 55.9802C74.7893 57.0356 74.0969 57.8676 73.2114 58.4751C72.3375 59.0825 71.3565 59.3873 70.2685 59.3873ZM70.2685 56.6679C71.004 56.6679 71.5637 56.306 71.9477 55.5799C72.3421 54.8445 72.54 53.7891 72.54 52.4137C72.54 51.0383 72.3421 49.9887 71.9477 49.2637C71.5637 48.5283 71.004 48.1606 70.2685 48.1606C69.5331 48.1606 68.9885 48.5283 68.6057 49.2637C68.2217 49.9887 68.0297 51.0394 68.0297 52.4137C68.0297 53.7879 68.2217 54.8445 68.6057 55.5799C68.9897 56.3049 69.5436 56.6679 70.2685 56.6679Z" fill="white"/>
  <path d="M19.3245 41.3836C19.2174 41.3836 19.122 41.3405 19.0371 41.2556C18.9521 41.1811 18.9091 41.0845 18.9091 40.9682V24.3351C18.9091 24.2176 18.9521 24.1222 19.0371 24.0477C19.122 23.9628 19.2186 23.9197 19.3245 23.9197H21.4353C21.6704 23.9197 21.8193 24.0582 21.8833 24.3351L22.2033 25.9026H22.3313C22.6187 25.209 23.0667 24.6551 23.6753 24.2397C24.2932 23.8127 24.9658 23.5997 25.6907 23.5997C26.5972 23.5997 27.3966 23.893 28.0901 24.4794C28.7837 25.0554 29.3166 25.8711 29.689 26.9266C30.073 27.9715 30.265 29.1875 30.265 30.5734C30.265 31.9593 30.073 33.1799 29.689 34.2354C29.3155 35.2803 28.7825 36.096 28.0901 36.6825C27.3966 37.2585 26.5972 37.5459 25.6907 37.5459C24.9763 37.5459 24.3525 37.3644 23.8196 37.0025C23.2867 36.6394 22.8224 36.0855 22.4279 35.3396H22.2999V40.9693C22.2999 41.0868 22.2568 41.1823 22.1719 41.2567C22.0974 41.3417 22.0008 41.3847 21.8845 41.3847H19.3256L19.3245 41.3836ZM22.2359 30.5722C22.2359 31.8941 22.4337 32.9123 22.8282 33.6268C23.2227 34.3412 23.7824 34.6985 24.5073 34.6985C25.2323 34.6985 25.7873 34.3412 26.1701 33.6268C26.5541 32.9123 26.7461 31.8941 26.7461 30.5722C26.7461 29.2503 26.5541 28.2322 26.1701 27.5177C25.7861 26.8032 25.2323 26.446 24.5073 26.446C23.7824 26.446 23.2227 26.8032 22.8282 27.5177C22.4337 28.2322 22.2359 29.2503 22.2359 30.5722Z" fill="white"/>
  <path d="M39.644 27.0208C39.6125 27.1488 39.5427 27.2291 39.4357 27.2605C39.3403 27.2931 39.2169 27.2768 39.068 27.2128C38.6944 27.0522 38.3849 26.9359 38.1405 26.8614C37.895 26.7764 37.6285 26.7334 37.3411 26.7334C36.6802 26.7334 36.1787 26.9789 35.8377 27.4688C35.4968 27.9482 35.3257 28.6522 35.3257 29.5796V36.8082C35.3257 36.9257 35.2885 37.0269 35.214 37.1119C35.1395 37.1863 35.0383 37.2236 34.9103 37.2236H32.3515C32.2444 37.2236 32.149 37.1805 32.064 37.0956C31.9791 37.0106 31.936 36.914 31.936 36.8082V24.334C31.936 24.206 31.9733 24.1047 32.0477 24.0303C32.1327 23.9558 32.2339 23.9186 32.3515 23.9186H34.4623C34.5903 23.9186 34.6915 23.9558 34.766 24.0303C34.8405 24.1047 34.8882 24.206 34.9103 24.334L35.2303 25.9014H35.3583C35.6457 25.166 36.0623 24.6063 36.6057 24.2223C37.1491 23.8278 37.7891 23.6311 38.5245 23.6311C39.0901 23.6311 39.6009 23.737 40.0594 23.9511C40.1769 24.0151 40.2467 24.0954 40.2677 24.1908C40.2991 24.2758 40.2944 24.3991 40.2514 24.5586L39.644 27.022V27.0208Z" fill="white"/>
  <path d="M41.6908 37.2247C41.5628 37.2247 41.4616 37.1875 41.3871 37.113C41.3126 37.0385 41.2754 36.9373 41.2754 36.8093V24.3351C41.2754 24.2071 41.3126 24.1059 41.3871 24.0314C41.4616 23.9569 41.5628 23.9197 41.6908 23.9197H44.2497C44.5266 23.9197 44.6662 24.0582 44.6662 24.3351V36.8093C44.6662 36.9373 44.629 37.0385 44.5545 37.113C44.4801 37.1875 44.3788 37.2247 44.2508 37.2247H41.692H41.6908ZM42.9697 22.8794C42.4158 22.8794 41.9457 22.6979 41.5628 22.336C41.1788 21.9729 40.9868 21.4935 40.9868 20.8966C40.9868 20.2996 41.173 19.8086 41.5465 19.4572C41.9305 19.0941 42.4053 18.9137 42.9697 18.9137C43.534 18.9137 44.0041 19.0953 44.3777 19.4572C44.7617 19.8086 44.9537 20.2892 44.9537 20.8966C44.9537 21.504 44.7617 21.9729 44.3777 22.336C43.9937 22.6991 43.5247 22.8794 42.9697 22.8794Z" fill="white"/>
  <path d="M47.2192 37.2247C47.1121 37.2247 47.0167 37.1817 46.9306 37.0967C46.8457 37.0118 46.8026 36.9152 46.8026 36.8093V24.3351C46.8026 24.2071 46.8399 24.1059 46.9143 24.0314C46.9993 23.9569 47.1005 23.9197 47.218 23.9197H49.3289C49.5744 23.9197 49.7233 24.0582 49.7769 24.3351L50.0969 25.9025H50.2249C50.5134 25.1567 50.9289 24.5853 51.4723 24.1908C52.0157 23.7964 52.6557 23.5985 53.3911 23.5985C54.1696 23.5985 54.841 23.801 55.4065 24.206C55.9721 24.6109 56.4038 25.1764 56.7017 25.9014H56.8297C57.3091 25.1334 57.8432 24.5574 58.4285 24.1745C59.0254 23.7905 59.6922 23.5985 60.4276 23.5985C61.2166 23.5985 61.8996 23.8115 62.4745 24.2385C63.0609 24.6644 63.5031 25.2777 63.8022 26.0783C64.1117 26.8672 64.2665 27.8004 64.2665 28.8768V36.8093C64.2665 36.9268 64.2292 37.0281 64.1548 37.113C64.0803 37.1875 63.979 37.2247 63.851 37.2247H61.2922C61.1863 37.2247 61.0897 37.1817 61.0048 37.0967C60.9199 37.0118 60.8768 36.9152 60.8768 36.8093V29.1328C60.8768 28.3439 60.7278 27.7411 60.4288 27.3257C60.1297 26.9103 59.7038 26.702 59.1488 26.702C58.5193 26.702 58.0398 26.9475 57.7094 27.4374C57.3894 27.9284 57.23 28.6417 57.23 29.5808V36.8093C57.23 36.9268 57.1927 37.0281 57.1182 37.113C57.0438 37.1875 56.9425 37.2247 56.8145 37.2247H54.2557C54.1487 37.2247 54.0532 37.1817 53.9683 37.0967C53.8833 37.0118 53.8403 36.9152 53.8403 36.8093V29.1328C53.8403 28.3439 53.6913 27.7411 53.3923 27.3257C53.0932 26.9103 52.6673 26.702 52.1123 26.702C51.4828 26.702 51.0033 26.9475 50.6729 27.4374C50.3529 27.9284 50.1935 28.6417 50.1935 29.5808V36.8093C50.1935 36.9268 50.1562 37.0281 50.0817 37.113C50.0073 37.1875 49.906 37.2247 49.778 37.2247H47.2192Z" fill="white"/>
  <path d="M65.7839 30.6676C65.7839 29.3132 66.0294 28.103 66.5193 27.0371C67.0208 25.9596 67.7085 25.1182 68.5824 24.5108C69.4563 23.9034 70.4536 23.5985 71.573 23.5985C72.6924 23.5985 73.6035 23.8918 74.4355 24.4783C75.278 25.0647 75.9285 25.8804 76.3869 26.9254C76.8559 27.9598 77.0909 29.1433 77.0909 30.4756V31.1471C77.0909 31.2751 77.049 31.3763 76.9629 31.4508C76.8885 31.5252 76.7814 31.5625 76.6429 31.5625H69.3341C69.4947 33.7594 70.2406 34.8567 71.573 34.8567C72.6714 34.8567 73.3533 34.2865 73.6198 33.145C73.6838 32.8785 73.8432 32.7715 74.0992 32.825L76.4661 33.3533C76.7535 33.4173 76.8501 33.5884 76.7535 33.8653C76.3485 35.0487 75.6981 35.961 74.8021 36.5998C73.9061 37.2294 72.8297 37.5436 71.5718 37.5436C70.4419 37.5436 69.4389 37.2561 68.565 36.6801C67.6911 36.1041 67.008 35.2942 66.5181 34.2493C66.0271 33.2044 65.7827 32.0105 65.7827 30.6665L65.7839 30.6676ZM73.6361 29.3248C73.5407 28.3229 73.3161 27.5654 72.9647 27.0534C72.6237 26.5414 72.1594 26.2854 71.573 26.2854C70.9865 26.2854 70.5117 26.5472 70.1173 27.0697C69.7333 27.5921 69.4831 28.3438 69.3655 29.3248H73.6361Z" fill="white"/>
  <path d="M62.1219 74.0259C59.8865 75.0045 57.465 75.7586 54.8561 76.2903C52.2472 76.8221 49.6198 77.0874 46.9748 77.0874C43.8574 77.0874 40.7843 76.7127 37.7518 75.9645C34.7194 75.2151 31.8906 74.0887 29.2631 72.5853C26.6356 71.0819 24.4224 69.2178 22.6222 66.9964C22.1754 66.4413 21.8915 65.9747 21.7704 65.6012C21.6378 65.1776 21.6855 64.8762 21.9159 64.6947C22.0846 64.562 22.3057 64.5434 22.5768 64.64C22.8491 64.7366 23.2075 64.96 23.6544 65.3103C25.7315 66.9778 28.0995 68.3601 30.7572 69.4598C33.415 70.5583 36.1902 71.3716 39.083 71.8964C41.9758 72.4224 44.8721 72.6842 47.7707 72.6842C50.2109 72.6842 52.6382 72.5085 55.0551 72.1583C57.4708 71.808 59.712 71.3309 61.7774 70.727C63.8429 70.1231 65.6 69.4342 67.0499 68.6615C67.5095 68.4195 67.8656 68.2682 68.1181 68.2077C68.3718 68.1472 68.5894 68.2077 68.7709 68.3892C68.9035 68.5463 68.9699 68.7034 68.9699 68.8605C68.9699 69.2841 68.5649 69.8508 67.7562 70.5641C66.2342 71.8929 64.356 73.0473 62.1207 74.0259H62.1219ZM64.6586 65.6C64.9123 65.358 65.2928 65.0985 65.8001 64.8204C67.1767 64.0966 68.6324 63.7335 70.1672 63.7335C70.9527 63.7335 71.7347 63.8418 72.5131 64.0594C73.2928 64.277 73.7966 64.5539 74.0259 64.8925C74.2679 65.2428 74.3575 65.8223 74.2982 66.6322C74.2376 67.442 74.0747 68.2147 73.8094 68.9513C73.3265 70.3767 72.4864 71.6079 71.2913 72.647C70.6269 73.2626 70.1195 73.5709 69.7693 73.5709C69.6366 73.5709 69.5156 73.5162 69.4074 73.408C69.2387 73.2509 69.1782 73.0566 69.2259 72.8273C69.2736 72.5981 69.419 72.2839 69.6611 71.8848C70.2894 70.8946 70.7875 69.874 71.1563 68.8221C71.5252 67.7714 71.5997 67.0825 71.3833 66.7567C71.239 66.5507 70.8759 66.4099 70.2964 66.3308C69.7169 66.2516 69.0339 66.24 68.2484 66.2947C67.463 66.3494 66.7078 66.4553 65.9828 66.6112C65.536 66.6962 65.1915 66.7229 64.9495 66.6927C64.7075 66.6624 64.5446 66.5507 64.4608 66.3575C64.3398 66.0911 64.4061 65.8374 64.6598 65.5965L64.6586 65.6Z" fill="white"/>
</svg>